<svg width="103" height="25" viewBox="0 0 103 25" fill="none" xmlns="http://www.w3.org/2000/svg">
<path d="M20.0366 6.90519H24.9033V8.89267C25.5658 7.87345 27.222 6.52298 29.1331 6.52298C31.5278 6.52298 32.8528 7.5422 33.4898 8.96911C33.988 8.2037 34.6727 7.57759 35.4795 7.14967C36.2863 6.72176 37.1887 6.5061 38.1018 6.52298C42.0003 6.52298 43.2229 8.7143 43.2229 12.358V20.2569H37.9234V13.4532C37.9234 11.4917 37.5412 10.7018 36.1398 10.7018C34.5855 10.7018 34.2797 12.0518 34.2797 13.6571V20.2565H28.9802V13.4532C28.9802 11.4917 28.598 10.7018 27.1966 10.7018C25.6423 10.7018 25.3365 12.0518 25.3365 13.6571V20.2565H20.0366V6.90519Z" fill="#292929"/>
<path d="M50.4606 14.7782C50.4535 15.1248 50.5166 15.4692 50.646 15.7908C50.7754 16.1125 50.9684 16.4046 51.2136 16.6497C51.4587 16.8948 51.7508 17.0879 52.0724 17.2173C52.394 17.3467 52.7385 17.4098 53.0851 17.4027C53.4942 17.4209 53.8998 17.3197 54.2526 17.1117C54.6054 16.9036 54.8901 16.5975 55.0721 16.2306H60.1431C59.2258 19.5431 55.8629 20.6387 52.7538 20.6387C48.4731 20.6387 45.1606 18.1926 45.1606 13.708C45.1606 9.32583 48.4476 6.52298 52.7283 6.52298C57.6711 6.52298 60.6523 9.93736 60.5759 14.7782H50.4606ZM55.2764 12.0773C55.2554 11.4647 55.0009 10.8832 54.5651 10.4522C54.1292 10.0212 53.545 9.77316 52.9322 9.75899C51.3524 9.75899 50.4606 10.6508 50.4606 12.0773H55.2764Z" fill="#292929"/>
<path d="M72.3738 20.2565V18.4729C71.1253 20.1037 69.9786 20.6387 68.2714 20.6387C64.246 20.6387 62.2075 17.6066 62.2075 13.8359C62.2075 9.40229 64.6791 6.523 67.8638 6.523C69.5455 6.523 70.7176 6.93069 71.8387 8.25567V1.91147H77.1386V20.2574L72.3738 20.2565ZM72.0171 13.7081C72.0171 12.2302 71.5075 10.6254 69.7493 10.6254C67.9912 10.6254 67.5075 12.3066 67.5075 13.7849C67.5075 15.1864 67.8638 16.8167 69.5969 16.8167C71.4302 16.8167 72.0162 15.2624 72.0162 13.7081H72.0171Z" fill="#292929"/>
<path d="M79.9406 20.2565V6.90521H85.2414V20.2565H79.9406Z" fill="#292929"/>
<path d="M97.5217 20.2565L97.2669 18.8296C95.764 20.231 94.2347 20.6387 92.2473 20.6387C89.7251 20.6387 87.4828 19.3902 87.4828 16.6128C87.4828 10.5489 96.9871 13.3004 96.9871 10.8033C96.9871 9.83544 95.8145 9.70803 95.254 9.70803C94.515 9.70803 93.5213 9.86092 93.3943 11.0071H88.2982C88.2982 8.17921 90.3112 6.52298 95.5856 6.52298C101.904 6.52298 102.287 8.86718 102.287 12.0518V18.2945C102.287 19.0589 102.312 19.4411 103 20.0017V20.2565H97.5217ZM96.9871 14.345C95.254 15.1859 92.9611 14.7782 92.9611 16.5109C92.9611 17.1734 93.5982 17.632 94.6424 17.632C96.5025 17.632 97.114 16.1796 96.9871 14.345Z" fill="#292929"/>
<path d="M85.3293 2.73872C85.3293 3.28039 85.1687 3.80989 84.8678 4.26028C84.5668 4.71066 84.1391 5.06168 83.6387 5.26897C83.1382 5.47626 82.5876 5.5305 82.0563 5.42482C81.525 5.31915 81.037 5.05831 80.654 4.67529C80.271 4.29227 80.0102 3.80428 79.9045 3.27302C79.7988 2.74176 79.8531 2.19109 80.0603 1.69066C80.2676 1.19022 80.6187 0.762493 81.069 0.461558C81.5194 0.160623 82.0489 3.29388e-08 82.5906 3.29388e-08C82.9503 -5.57515e-05 83.3064 0.0707454 83.6387 0.208359C83.971 0.345973 84.273 0.547704 84.5273 0.802029C84.7816 1.05635 84.9833 1.35829 85.121 1.69059C85.2586 2.02289 85.3294 2.37905 85.3293 2.73872Z" fill="#219cfe"/>
<path d="M14.1731 4.59836H3.23941C2.38027 4.59836 1.55631 4.93965 0.948802 5.54716C0.341295 6.15467 2.50552e-07 6.97863 2.50552e-07 7.83777V18.7714C-0.000167099 19.1969 0.0834994 19.6183 0.24622 20.0115C0.408941 20.4047 0.647528 20.7619 0.948352 21.0629C1.24918 21.3638 1.60634 21.6025 1.99945 21.7654C2.39256 21.9283 2.8139 22.0121 3.23941 22.0121H8.49985L13.0893 24.7878L12.4561 22.0121H14.1731C15.0322 22.0121 15.8562 21.6708 16.4637 21.0633C17.0712 20.4558 17.4125 19.6318 17.4125 18.7727V7.83777C17.4125 7.41236 17.3287 6.99112 17.1659 6.5981C17.0031 6.20508 16.7645 5.84797 16.4637 5.54716C16.1629 5.24635 15.8058 5.00774 15.4127 4.84494C15.0197 4.68215 14.5985 4.59836 14.1731 4.59836ZM8.46418 20.4476C5.40652 20.4476 2.04311 19.5048 1.76325 15.9121H6.80795C6.79807 16.1458 6.84373 16.3784 6.94117 16.591C7.03862 16.8036 7.18507 16.9901 7.36852 17.1352C7.74559 17.4092 8.20197 17.5524 8.66802 17.5428C9.48339 17.5428 10.3497 17.288 10.3497 16.3453C10.3497 14.2053 2.17093 15.9121 2.17093 10.7396C2.17093 7.32519 5.71229 6.33145 8.48966 6.33145C11.3944 6.33145 14.8084 6.99394 15.1146 10.5357H10.2988C10.2836 10.3483 10.2306 10.1659 10.1431 9.99945C10.0555 9.83303 9.93508 9.68609 9.78916 9.56747C9.48101 9.33752 9.10315 9.22056 8.71898 9.23622C7.80169 9.23622 7.21564 9.51651 7.21564 10.179C7.21564 12.0391 15.6492 10.7905 15.6492 15.7847C15.6492 18.5621 13.356 20.4476 8.46418 20.4476Z" fill="#219cfe"/>
</svg>
