<svg width="58" height="59" viewBox="0 0 58 59" fill="none" xmlns="http://www.w3.org/2000/svg">
<ellipse cx="28.7707" cy="29.7579" rx="28.6886" ry="28.92" fill="#F2F3F8"/>
<path d="M39.4577 12.5659H19.4058C17.8302 12.5659 16.3191 13.1969 15.2049 14.32C14.0908 15.4431 13.4648 16.9664 13.4648 18.5548V38.7684C13.4645 39.5551 13.618 40.3341 13.9164 41.061C14.2148 41.7878 14.6524 42.4483 15.2041 43.0047C15.7558 43.5611 16.4108 44.0024 17.1318 44.3035C17.8527 44.6046 18.6254 44.7596 19.4058 44.7596H29.0532L37.4701 49.8911L36.3089 44.7596H39.4577C41.0333 44.7596 42.5444 44.1286 43.6586 43.0055C44.7727 41.8824 45.3987 40.3591 45.3987 38.7707V18.5548C45.3987 17.7683 45.245 16.9895 44.9464 16.2629C44.6479 15.5363 44.2103 14.8761 43.6586 14.32C43.1069 13.7639 42.452 13.3228 41.7312 13.0218C41.0104 12.7208 40.2379 12.5659 39.4577 12.5659ZM28.9878 41.8672C23.3802 41.8672 17.2118 40.1243 16.6986 33.4822H25.9504C25.9322 33.9142 26.016 34.3443 26.1947 34.7374C26.3734 35.1304 26.642 35.4752 26.9784 35.7433C27.6699 36.25 28.5069 36.5147 29.3617 36.4971C30.857 36.4971 32.4458 36.026 32.4458 34.283C32.4458 30.3268 17.4463 33.4822 17.4463 23.9195C17.4463 17.6071 23.941 15.77 29.0345 15.77C34.3618 15.77 40.6228 16.9948 41.1844 23.5426H32.3524C32.3246 23.1961 32.2274 22.8588 32.0668 22.5512C31.9062 22.2435 31.6854 21.9719 31.4178 21.7526C30.8526 21.3275 30.1597 21.1112 29.4551 21.1402C27.7728 21.1402 26.698 21.6583 26.698 22.8831C26.698 26.3219 42.1649 24.0137 42.1649 33.2467C42.1649 38.3813 37.9592 41.8672 28.9878 41.8672Z" fill="#219cfe"/>
</svg>
