<svg width="18" height="21" viewBox="0 0 18 21" fill="none" xmlns="http://www.w3.org/2000/svg">
<path d="M14.1731 0.598358H3.23941C2.38027 0.598358 1.55631 0.939652 0.948802 1.54716C0.341295 2.15467 2.50552e-07 2.97863 2.50552e-07 3.83777V14.7714C-0.000167099 15.1969 0.0834994 15.6183 0.24622 16.0115C0.408941 16.4047 0.647528 16.7619 0.948352 17.0629C1.24918 17.3638 1.60634 17.6025 1.99945 17.7654C2.39256 17.9283 2.8139 18.0121 3.23941 18.0121H8.49985L13.0893 20.7878L12.4561 18.0121H14.1731C15.0322 18.0121 15.8562 17.6708 16.4637 17.0633C17.0712 16.4558 17.4125 15.6318 17.4125 14.7727V3.83777C17.4125 3.41236 17.3287 2.99112 17.1659 2.5981C17.0031 2.20508 16.7645 1.84797 16.4637 1.54716C16.1629 1.24635 15.8058 1.00774 15.4127 0.844944C15.0197 0.682148 14.5985 0.598358 14.1731 0.598358ZM8.46418 16.4476C5.40652 16.4476 2.04311 15.5048 1.76325 11.9121H6.80795C6.79807 12.1458 6.84373 12.3784 6.94117 12.591C7.03862 12.8036 7.18507 12.9901 7.36852 13.1352C7.74559 13.4092 8.20197 13.5524 8.66802 13.5428C9.48339 13.5428 10.3497 13.288 10.3497 12.3453C10.3497 10.2053 2.17093 11.9121 2.17093 6.73957C2.17093 3.32519 5.71229 2.33145 8.48966 2.33145C11.3944 2.33145 14.8084 2.99394 15.1146 6.53572H10.2988C10.2836 6.34828 10.2306 6.16586 10.1431 5.99945C10.0555 5.83303 9.93508 5.68609 9.78916 5.56747C9.48101 5.33752 9.10315 5.22056 8.71898 5.23622C7.80169 5.23622 7.21564 5.51651 7.21564 6.179C7.21564 8.03907 15.6492 6.79053 15.6492 11.7847C15.6492 14.5621 13.356 16.4476 8.46418 16.4476Z" fill="#219cfe"/>
</svg>
