<svg xmlns="http://www.w3.org/2000/svg" version="1.1" xmlns:xlink="http://www.w3.org/1999/xlink" xmlns:svgjs="http://svgjs.com/svgjs" width="1440" height="560" preserveAspectRatio="none" viewBox="0 0 1440 560"><g mask="url(&quot;#SvgjsMask1012&quot;)" fill="none"><path d="M0 505.3L10 487.03L20 453.28L30 454.67L40 402.54L50 406.68L60 448.04L70 474.81L80 411.74L90 370.28L100 418.38L110 471.76L120 467.38L130 483.32L140 447.95L150 512.35L160 511.59L170 528.38L180 535.85L190 533.24L200 469.81L210 530.96L220 510.06L230 461.07L240 434.01L250 456L260 488.24L270 498.4L280 557.11L290 534.63L300 517.35L310 463.74L320 431.34L330 495.55L340 437.66L350 432.26L360 401.22L370 361.54L380 300.94L390 300.09L400 261.89L410 241.73L420 176.3L430 208.53L440 239.55L450 181.68L460 242.6L470 296.29L480 345.47L490 298.89L500 307.94L510 372.86L520 410.43L530 364.81L540 307.14L550 295.51L560 326.06L570 330.1L580 289.12L590 320.06L600 317.98L610 288.96L620 298.15L630 347.84L640 354.08L650 419.25L660 350.36L670 345.09L680 406.1L690 471.57L700 504.03L710 554.22L720 555.85L730 490.99L740 421.87L750 444.82L760 406.09L770 400.05L780 339.75L790 348.26L800 382.06L810 342.98L820 357.31L830 373.79L840 423.22L850 412.76L860 462.03L870 405.19L880 435.15L890 366.68L900 395.05L910 405.6L920 395.6L930 328.93L940 267.86L950 251.76L960 314.65L970 254.93L980 316.15L990 332.72L1000 315.49L1010 317.66L1020 312.83L1030 277.84L1040 228.99L1050 255.27L1060 241.08L1070 294.34L1080 240L1090 240.03L1100 265.03L1110 273.44L1120 229.51L1130 159.79L1140 123.17L1150 175.46L1160 121.31L1170 166.85L1180 109.47L1190 84.43L1200 41.93L1210 80.8L1220 14.53L1230 75.13L1240 79.2L1250 88.47L1260 145.05L1270 120.1L1280 147.39L1290 122.33L1300 53.2L1310 102.77L1320 121.43L1330 110.48L1340 89.83L1350 75.05L1360 39.46L1370 83.45L1380 146.95L1390 164.11L1400 199.66L1410 195.68L1420 149.88L1430 206.07L1440 172.37" stroke="rgba(33, 156, 254, 1)" stroke-width="2"></path><path d="M0 505.3L10 487.03L20 453.28L30 454.67L40 402.54L50 406.68L60 448.04L70 474.81L80 411.74L90 370.28L100 418.38L110 471.76L120 467.38L130 483.32L140 447.95L150 512.35L160 511.59L170 528.38L180 535.85L190 533.24L200 469.81L210 530.96L220 510.06L230 461.07L240 434.01L250 456L260 488.24L270 498.4L280 557.11L290 534.63L300 517.35L310 463.74L320 431.34L330 495.55L340 437.66L350 432.26L360 401.22L370 361.54L380 300.94L390 300.09L400 261.89L410 241.73L420 176.3L430 208.53L440 239.55L450 181.68L460 242.6L470 296.29L480 345.47L490 298.89L500 307.94L510 372.86L520 410.43L530 364.81L540 307.14L550 295.51L560 326.06L570 330.1L580 289.12L590 320.06L600 317.98L610 288.96L620 298.15L630 347.84L640 354.08L650 419.25L660 350.36L670 345.09L680 406.1L690 471.57L700 504.03L710 554.22L720 555.85L730 490.99L740 421.87L750 444.82L760 406.09L770 400.05L780 339.75L790 348.26L800 382.06L810 342.98L820 357.31L830 373.79L840 423.22L850 412.76L860 462.03L870 405.19L880 435.15L890 366.68L900 395.05L910 405.6L920 395.6L930 328.93L940 267.86L950 251.76L960 314.65L970 254.93L980 316.15L990 332.72L1000 315.49L1010 317.66L1020 312.83L1030 277.84L1040 228.99L1050 255.27L1060 241.08L1070 294.34L1080 240L1090 240.03L1100 265.03L1110 273.44L1120 229.51L1130 159.79L1140 123.17L1150 175.46L1160 121.31L1170 166.85L1180 109.47L1190 84.43L1200 41.93L1210 80.8L1220 14.53L1230 75.13L1240 79.2L1250 88.47L1260 145.05L1270 120.1L1280 147.39L1290 122.33L1300 53.2L1310 102.77L1320 121.43L1330 110.48L1340 89.83L1350 75.05L1360 39.46L1370 83.45L1380 146.95L1390 164.11L1400 199.66L1410 195.68L1420 149.88L1430 206.07L1440 172.37L1440 560L0 560z" fill="url(#SvgjsLinearGradient1013)"></path></g><defs><mask id="SvgjsMask1012"><rect width="1440" height="560" fill="#ffffff"></rect></mask><linearGradient x1="50%" y1="0%" x2="50%" y2="100%" id="SvgjsLinearGradient1013"><stop stop-opacity="0.65" stop-color="rgba(33, 156, 254, 1)" offset="0"></stop><stop stop-opacity="0" stop-color="#ffffff" offset="0.8"></stop></linearGradient></defs></svg>