<svg xmlns="http://www.w3.org/2000/svg" version="1.1" xmlns:xlink="http://www.w3.org/1999/xlink" xmlns:svgjs="http://svgjs.com/svgjs" width="1440" height="560" preserveAspectRatio="none" viewBox="0 0 1440 560"><g mask="url(&quot;#SvgjsMask1023&quot;)" fill="none"><path d="M0 114.21L10 106.04L20 107.74L30 63.28L40 39.6L50 58.4L60 37.37L70 71.51L80 20.15L90 54.55L100 115.22L110 152.46L120 189.27L130 181.69L140 121.83L150 119.11L160 90.99L170 75.94L180 72.23L190 98.34L200 98.29L210 144.69L220 197.88L230 228.61L240 258.4L250 309.47L260 376.98L270 424.92L280 394.51L290 328.1L300 364.07L310 328.77L320 295.9L330 245.41L340 308.47L350 319.11L360 267.61L370 222.16L380 226.64L390 181.71L400 230.05L410 249.57L420 312.74L430 267.66L440 200.81L450 205.9L460 149.02L470 182.48L480 171.72L490 162.54L500 193L510 226.33L520 228.51L530 211.6L540 206.95L550 183.04L560 180.39L570 121.4L580 125.65L590 182.55L600 160.28L610 109.03L620 81.2L630 100.82L640 30.94L650 82.02L660 74.35L670 36.11L680 14.7L690 78.09L700 111.49L710 66.93L720 56.89L730 47.63L740 6.84L750 18.25L760 72.44L770 83.08L780 111.34L790 59.86L800 72.46L810 126.47L820 128L830 71.8L840 100.84L850 36.42L860 46.87L870 39.07L880 92L890 70.31L900 101.91L910 121.38L920 61.91L930 50.8L940 55.04L950 102.03L960 77.88L970 31.41L980 91.9L990 39.3L1000 19.77L1010 41.45L1020 104.96L1030 136.15L1040 181.81L1050 167.17L1060 178.13L1070 125.91L1080 67.29L1090 69.07L1100 84.76L1110 27.08L1120 57.26L1130 85.43L1140 102.61L1150 147.04L1160 181.19L1170 120.32L1180 64.94L1190 19.54L1200 78.48L1210 21.82L1220 81.5L1230 105.47L1240 50.62L1250 77.25L1260 138.57L1270 123.09L1280 56.13L1290 56.71L1300 44.53L1310 93.73L1320 42.1L1330 80.1L1340 54.16L1350 88.91L1360 155.21L1370 103.17L1380 113.17L1390 46.99L1400 106.36L1410 127.81L1420 75.4L1430 137.53L1440 114.31" stroke="rgba(33, 156, 254, 1)" stroke-width="2"></path><path d="M0 114.21L10 106.04L20 107.74L30 63.28L40 39.6L50 58.4L60 37.37L70 71.51L80 20.15L90 54.55L100 115.22L110 152.46L120 189.27L130 181.69L140 121.83L150 119.11L160 90.99L170 75.94L180 72.23L190 98.34L200 98.29L210 144.69L220 197.88L230 228.61L240 258.4L250 309.47L260 376.98L270 424.92L280 394.51L290 328.1L300 364.07L310 328.77L320 295.9L330 245.41L340 308.47L350 319.11L360 267.61L370 222.16L380 226.64L390 181.71L400 230.05L410 249.57L420 312.74L430 267.66L440 200.81L450 205.9L460 149.02L470 182.48L480 171.72L490 162.54L500 193L510 226.33L520 228.51L530 211.6L540 206.95L550 183.04L560 180.39L570 121.4L580 125.65L590 182.55L600 160.28L610 109.03L620 81.2L630 100.82L640 30.94L650 82.02L660 74.35L670 36.11L680 14.7L690 78.09L700 111.49L710 66.93L720 56.89L730 47.63L740 6.84L750 18.25L760 72.44L770 83.08L780 111.34L790 59.86L800 72.46L810 126.47L820 128L830 71.8L840 100.84L850 36.42L860 46.87L870 39.07L880 92L890 70.31L900 101.91L910 121.38L920 61.91L930 50.8L940 55.04L950 102.03L960 77.88L970 31.41L980 91.9L990 39.3L1000 19.77L1010 41.45L1020 104.96L1030 136.15L1040 181.81L1050 167.17L1060 178.13L1070 125.91L1080 67.29L1090 69.07L1100 84.76L1110 27.08L1120 57.26L1130 85.43L1140 102.61L1150 147.04L1160 181.19L1170 120.32L1180 64.94L1190 19.54L1200 78.48L1210 21.82L1220 81.5L1230 105.47L1240 50.62L1250 77.25L1260 138.57L1270 123.09L1280 56.13L1290 56.71L1300 44.53L1310 93.73L1320 42.1L1330 80.1L1340 54.16L1350 88.91L1360 155.21L1370 103.17L1380 113.17L1390 46.99L1400 106.36L1410 127.81L1420 75.4L1430 137.53L1440 114.31L1440 560L0 560z" fill="url(#SvgjsLinearGradient1024)"></path></g><defs><mask id="SvgjsMask1023"><rect width="1440" height="560" fill="#ffffff"></rect></mask><linearGradient x1="50%" y1="0%" x2="50%" y2="100%" id="SvgjsLinearGradient1024"><stop stop-opacity="0.65" stop-color="rgba(33, 156, 254, 1)" offset="0"></stop><stop stop-opacity="0" stop-color="#ffffff" offset="0.8"></stop></linearGradient></defs></svg>