<svg xmlns="http://www.w3.org/2000/svg" version="1.1" xmlns:xlink="http://www.w3.org/1999/xlink" xmlns:svgjs="http://svgjs.com/svgjs" width="1440" height="560" preserveAspectRatio="none" viewBox="0 0 1440 560"><g mask="url(&quot;#SvgjsMask1053&quot;)" fill="none"><path d="M360 48L677 -269" stroke-width="6" stroke="url(#SvgjsLinearGradient1054)" stroke-linecap="round" class="BottomLeft"></path><path d="M100 214L-291 605" stroke-width="6" stroke="url(#SvgjsLinearGradient1055)" stroke-linecap="round" class="BottomLeft"></path><path d="M1202 419L888 733" stroke-width="10" stroke="url(#SvgjsLinearGradient1056)" stroke-linecap="round" class="TopRight"></path><path d="M580 216L223 573" stroke-width="10" stroke="url(#SvgjsLinearGradient1057)" stroke-linecap="round" class="TopRight"></path><path d="M1209 69L1040 238" stroke-width="10" stroke="url(#SvgjsLinearGradient1054)" stroke-linecap="round" class="BottomLeft"></path><path d="M1121 444L1456 109" stroke-width="6" stroke="url(#SvgjsLinearGradient1056)" stroke-linecap="round" class="TopRight"></path><path d="M724 548L306 966" stroke-width="8" stroke="url(#SvgjsLinearGradient1055)" stroke-linecap="round" class="BottomLeft"></path><path d="M1439 481L1832 88" stroke-width="10" stroke="url(#SvgjsLinearGradient1055)" stroke-linecap="round" class="BottomLeft"></path><path d="M1007 506L1300 213" stroke-width="8" stroke="url(#SvgjsLinearGradient1055)" stroke-linecap="round" class="BottomLeft"></path><path d="M1022 336L710 648" stroke-width="8" stroke="url(#SvgjsLinearGradient1057)" stroke-linecap="round" class="TopRight"></path><path d="M1054 187L830 411" stroke-width="6" stroke="url(#SvgjsLinearGradient1055)" stroke-linecap="round" class="BottomLeft"></path><path d="M1192 544L798 938" stroke-width="10" stroke="url(#SvgjsLinearGradient1054)" stroke-linecap="round" class="BottomLeft"></path><path d="M415 518L14 919" stroke-width="8" stroke="url(#SvgjsLinearGradient1054)" stroke-linecap="round" class="BottomLeft"></path><path d="M563 361L262 662" stroke-width="8" stroke="url(#SvgjsLinearGradient1056)" stroke-linecap="round" class="TopRight"></path><path d="M556 48L747 -143" stroke-width="8" stroke="url(#SvgjsLinearGradient1054)" stroke-linecap="round" class="BottomLeft"></path><path d="M382 69L655 -204" stroke-width="10" stroke="url(#SvgjsLinearGradient1057)" stroke-linecap="round" class="TopRight"></path><path d="M910 323L1185 48" stroke-width="10" stroke="url(#SvgjsLinearGradient1057)" stroke-linecap="round" class="TopRight"></path><path d="M885 465L1194 156" stroke-width="10" stroke="url(#SvgjsLinearGradient1057)" stroke-linecap="round" class="TopRight"></path><path d="M761 353L1013 101" stroke-width="8" stroke="url(#SvgjsLinearGradient1057)" stroke-linecap="round" class="TopRight"></path><path d="M1383 381L1783 -19" stroke-width="6" stroke="url(#SvgjsLinearGradient1054)" stroke-linecap="round" class="BottomLeft"></path><path d="M1221 527L906 842" stroke-width="8" stroke="url(#SvgjsLinearGradient1055)" stroke-linecap="round" class="BottomLeft"></path><path d="M423 40L105 358" stroke-width="8" stroke="url(#SvgjsLinearGradient1056)" stroke-linecap="round" class="TopRight"></path><path d="M1429 306L1051 684" stroke-width="10" stroke="url(#SvgjsLinearGradient1055)" stroke-linecap="round" class="BottomLeft"></path><path d="M424 103L202 325" stroke-width="6" stroke="url(#SvgjsLinearGradient1055)" stroke-linecap="round" class="BottomLeft"></path><path d="M509 18L805 -278" stroke-width="6" stroke="url(#SvgjsLinearGradient1054)" stroke-linecap="round" class="BottomLeft"></path><path d="M646 369L1047 -32" stroke-width="6" stroke="url(#SvgjsLinearGradient1054)" stroke-linecap="round" class="BottomLeft"></path><path d="M1117 210L1419 -92" stroke-width="8" stroke="url(#SvgjsLinearGradient1054)" stroke-linecap="round" class="BottomLeft"></path><path d="M364 404L667 101" stroke-width="8" stroke="url(#SvgjsLinearGradient1057)" stroke-linecap="round" class="TopRight"></path><path d="M152 81L-38 271" stroke-width="6" stroke="url(#SvgjsLinearGradient1056)" stroke-linecap="round" class="TopRight"></path><path d="M1260 385L986 659" stroke-width="8" stroke="url(#SvgjsLinearGradient1055)" stroke-linecap="round" class="BottomLeft"></path><path d="M832 245L635 442" stroke-width="8" stroke="url(#SvgjsLinearGradient1055)" stroke-linecap="round" class="BottomLeft"></path><path d="M407 490L725 172" stroke-width="6" stroke="url(#SvgjsLinearGradient1055)" stroke-linecap="round" class="BottomLeft"></path><path d="M252 328L13 567" stroke-width="10" stroke="url(#SvgjsLinearGradient1055)" stroke-linecap="round" class="BottomLeft"></path><path d="M1017 283L805 495" stroke-width="6" stroke="url(#SvgjsLinearGradient1057)" stroke-linecap="round" class="TopRight"></path><path d="M931 544L635 840" stroke-width="10" stroke="url(#SvgjsLinearGradient1057)" stroke-linecap="round" class="TopRight"></path><path d="M212 325L-121 658" stroke-width="8" stroke="url(#SvgjsLinearGradient1056)" stroke-linecap="round" class="TopRight"></path><path d="M13 242L426 -171" stroke-width="8" stroke="url(#SvgjsLinearGradient1056)" stroke-linecap="round" class="TopRight"></path><path d="M1290 150L1015 425" stroke-width="8" stroke="url(#SvgjsLinearGradient1056)" stroke-linecap="round" class="TopRight"></path><path d="M171 295L-189 655" stroke-width="8" stroke="url(#SvgjsLinearGradient1057)" stroke-linecap="round" class="TopRight"></path></g><defs><mask id="SvgjsMask1053"><rect width="1440" height="560" fill="#ffffff"></rect></mask><linearGradient x1="100%" y1="0%" x2="0%" y2="100%" id="SvgjsLinearGradient1054"><stop stop-color="rgba(33, 156, 254, 0)" offset="0"></stop><stop stop-color="rgba(33, 156, 254, 1)" offset="1"></stop></linearGradient><linearGradient x1="100%" y1="0%" x2="0%" y2="100%" id="SvgjsLinearGradient1055"><stop stop-color="rgba(255, 153, 0, 0)" offset="0"></stop><stop stop-color="rgba(255, 153, 0, 1)" offset="1"></stop></linearGradient><linearGradient x1="0%" y1="100%" x2="100%" y2="0%" id="SvgjsLinearGradient1056"><stop stop-color="rgba(255, 153, 0, 0)" offset="0"></stop><stop stop-color="rgba(255, 153, 0, 1)" offset="1"></stop></linearGradient><linearGradient x1="0%" y1="100%" x2="100%" y2="0%" id="SvgjsLinearGradient1057"><stop stop-color="rgba(33, 156, 254, 0)" offset="0"></stop><stop stop-color="rgba(33, 156, 254, 1)" offset="1"></stop></linearGradient></defs></svg>