<svg xmlns="http://www.w3.org/2000/svg" version="1.1" xmlns:xlink="http://www.w3.org/1999/xlink" xmlns:svgjs="http://svgjs.com/svgjs" width="1440" height="560" preserveAspectRatio="none" viewBox="0 0 1440 560"><g mask="url(&quot;#SvgjsMask1054&quot;)" fill="none"><path d="M241.562,161.117C257.479,159.692,268.191,146.029,275.253,131.693C281.391,119.233,281.344,105.277,275.211,92.814C268.143,78.452,257.56,63.775,241.562,63.229C224.924,62.661,212.346,76.155,203.685,90.373C194.55,105.368,187.216,123.354,195.504,138.833C204.133,154.948,223.355,162.747,241.562,161.117" fill="rgba(255, 136, 0, 0.1)" class="triangle-float3"></path><path d="M69.66830051579575 273.34756877415373L137.58085491639957 214.3120859024857 78.54537204473158 146.39953150188188 10.63281764412774 205.4350143735499z" fill="rgba(255, 136, 0, 0.1)" class="triangle-float1"></path><path d="M1437.7224450809008 623.2806775922072L1543.9090464565927 496.7324139173571 1417.3607827817425 390.5458125416653 1311.1741814060508 517.0940762165153z" fill="rgba(255, 136, 0, 0.1)" class="triangle-float3"></path><path d="M672.8398028145075 319.1432324400828L530.2696611456113 331.61650359339615 542.7429322989246 474.1866452622923 685.3130739678209 461.71337410897894z" fill="rgba(255, 136, 0, 0.1)" class="triangle-float2"></path><path d="M564.266,666.892C611.483,663.736,647.602,628.208,669.252,586.129C688.925,547.891,688.325,503.53,667.742,465.774C646.163,426.191,609.343,394.279,564.266,393.55C518.092,392.803,479.593,423.354,454.823,462.329C427.696,505.013,407.928,557.409,431.786,602.003C456.648,648.473,511.68,670.407,564.266,666.892" fill="rgba(255, 136, 0, 0.1)" class="triangle-float1"></path><path d="M1338.454,653.551C1379.901,654.243,1423.522,646.465,1446.871,612.214C1473.097,573.743,1478.176,522.712,1455.291,482.164C1432.061,441.005,1385.624,417.171,1338.454,420.122C1295.526,422.807,1264.974,457.547,1244.46,495.352C1225.095,531.04,1215.39,573.789,1236.13,608.696C1256.518,643.011,1298.545,652.885,1338.454,653.551" fill="rgba(255, 136, 0, 0.1)" class="triangle-float3"></path><path d="M884.5541840357249 287.1081262527754L878.2687800498416 197.2226615620514 788.3833153591177 203.50806554793473 794.6687193450009 293.3935302386587z" fill="rgba(255, 136, 0, 0.1)" class="triangle-float2"></path><path d="M308.1217679257042 147.178118939305L406.00473349076844 148.88667245860964 407.7132870100731 51.003706893545385 309.83032144500885 49.29515337424074z" fill="rgba(255, 136, 0, 0.1)" class="triangle-float1"></path><path d="M1097.368297487844 134.43284880119248L1008.3972548446715 11.97471426165987 885.9391203051389 100.94575690483252 974.9101629483115 223.40389144436512z" fill="rgba(255, 136, 0, 0.1)" class="triangle-float2"></path><path d="M1188.8831461209204 444.0347043175325L1071.9683446067459 389.5164370198013 1017.4500773090147 506.43123853397583 1134.3648788231892 560.949505831707z" fill="rgba(255, 136, 0, 0.1)" class="triangle-float3"></path><path d="M1322.0776135125934 174.3666986880309L1426.8523566663166 198.55585411557647 1451.0415120938624 93.78111096185319 1346.266768940139 69.59195553430763z" fill="rgba(255, 136, 0, 0.1)" class="triangle-float3"></path><path d="M837.51,427.599C857.183,426.35,869.429,408.09,878.376,390.524C886.314,374.939,889.21,357.248,881.285,341.656C872.551,324.473,856.771,310.844,837.51,310.121C817.091,309.355,798.048,320.554,787.652,338.144C777.068,356.051,776.416,378.187,786.543,396.356C796.941,415.012,816.195,428.953,837.51,427.599" fill="rgba(255, 136, 0, 0.1)" class="triangle-float1"></path><path d="M930.4188173966284 606.9916753501521L930.4188173966284 473.96488279203504 797.3920248385112 473.9648827920351 797.3920248385112 606.9916753501521z" fill="rgba(255, 136, 0, 0.1)" class="triangle-float1"></path><path d="M93.89080603735331-113.38551755959625L-21.48480372089807-16.573885964593714 75.32682787410447 98.80172379365766 190.70243763235584 1.9900921986551339z" fill="rgba(255, 136, 0, 0.1)" class="triangle-float3"></path><path d="M671.2304696681056 414.2301183218061L775.6727207885542 423.3676312879731 784.8102337547211 318.9253801675245 680.3679826342725 309.7878672013575z" fill="rgba(255, 136, 0, 0.1)" class="triangle-float3"></path><path d="M34.097350458171064 387.7068572832659L-79.59779580493327 501.4020035463702 34.09735045817108 615.0971498094746 147.79249672127543 501.4020035463702z" fill="rgba(255, 136, 0, 0.1)" class="triangle-float2"></path><path d="M129.37663654989143 530.4357130796008L175.32109112024426 616.8446647259656 261.730042766609 570.9002101556127 215.78558819625619 484.4912585092479z" fill="rgba(255, 136, 0, 0.1)" class="triangle-float1"></path><path d="M1377.473,184.157C1422.264,183.741,1459.223,152.277,1480.669,112.951C1501.141,75.411,1503.463,30,1481.571,-6.73C1460.166,-42.643,1419.191,-62.924,1377.473,-60.189C1339.769,-57.717,1314.255,-26.747,1294.609,5.529C1273.82,39.683,1254.073,78.632,1270.899,114.902C1290.008,156.095,1332.066,184.579,1377.473,184.157" fill="rgba(255, 136, 0, 0.1)" class="triangle-float1"></path><path d="M543.3937642292977 39.79023329774614L394.63204786304993 44.98510690416865 399.82692146947244 193.74682327041646 548.5886378357203 188.55194966399395z" fill="rgba(255, 136, 0, 0.1)" class="triangle-float2"></path><path d="M764.656,696.191C811.405,695.413,856.426,677.581,882.138,638.531C910.754,595.07,922.87,539.427,897.955,493.743C872.15,446.427,818.537,424.322,764.656,423.115C708.291,421.852,648.409,438.488,620.595,487.529C593.053,536.09,608.477,596.618,640.196,642.56C667.705,682.404,716.245,696.997,764.656,696.191" fill="rgba(255, 136, 0, 0.1)" class="triangle-float2"></path></g><defs><mask id="SvgjsMask1054"><rect width="1440" height="560" fill="#ffffff"></rect></mask><style>
            @keyframes float1 {
                0%{transform: translate(0, 0)}
                50%{transform: translate(-10px, 0)}
                100%{transform: translate(0, 0)}
            }

            .triangle-float1 {
                animation: float1 5s infinite;
            }

            @keyframes float2 {
                0%{transform: translate(0, 0)}
                50%{transform: translate(-5px, -5px)}
                100%{transform: translate(0, 0)}
            }

            .triangle-float2 {
                animation: float2 4s infinite;
            }

            @keyframes float3 {
                0%{transform: translate(0, 0)}
                50%{transform: translate(0, -10px)}
                100%{transform: translate(0, 0)}
            }

            .triangle-float3 {
                animation: float3 6s infinite;
            }
        </style></defs></svg>